<svg width="500" height="500" viewBox="0 0 500 500" fill="none" xmlns="http://www.w3.org/2000/svg">
  <rect width="500" height="500" rx="40" fill="#0B1220"/>
  <rect x="10" y="10" width="480" height="480" rx="32" stroke="#14B8A6" stroke-width="4" stroke-opacity="0.3"/>
  <defs>
    <!-- Portfolio Theme Gradients -->
    <linearGradient id="theme-teal-cyan-logo" x1="0%" y1="0%" x2="100%" y2="100%">
      <stop offset="0%" stop-color="#00F0FF" />
      <stop offset="100%" stop-color="#14B8A6" />
    </linearGradient>
    <linearGradient id="theme-sky-blue-logo" x1="0%" y1="0%" x2="100%" y2="100%">
      <stop offset="0%" stop-color="#38BDF8" />
      <stop offset="100%" stop-color="#0284C7" />
    </linearGradient>
    <filter id="logo-glow" x="-20%" y="-20%" width="140%" height="140%">
      <feGaussianBlur stdDeviation="8" result="blur" />
      <feMerge>
        <feMergeNode in="blur" />
        <feMergeNode in="SourceGraphic" />
      </feMerge>
    </filter>
  </defs>

  <!-- GA Interlocking Monogram -->
  <g filter="url(#logo-glow)" transform="translate(15, 55) scale(0.95)">
    <!-- G (Teal / Electric Cyan) -->
    <path d="M 195 70 C 120 70 65 115 65 180 C 65 245 120 290 195 290 C 255 290 285 255 288 210 L 195 210 L 195 180 L 315 180 L 315 220 C 310 275 260 320 190 320 C 95 320 30 250 30 180 C 30 110 95 40 195 40 C 235 40 270 55 295 80 L 270 105 C 250 85 225 70 195 70 Z" fill="url(#theme-teal-cyan-logo)" />
    <!-- A (Sky / Electric Blue) -->
    <path d="M 335 50 L 375 50 L 460 280 L 418 280 L 396 220 L 250 220 L 250 190 L 386 190 L 355 100 L 318 190 L 285 280 L 245 280 L 335 50 Z" fill="url(#theme-sky-blue-logo)" />
  </g>

  <!-- Text: Ghayas Awan -->
  <text x="250" y="405" text-anchor="middle" font-family="'Outfit', 'Inter', sans-serif" font-size="42" font-weight="800" fill="#FFFFFF">Ghayas Awan</text>

  <!-- Text: SOFTWARE ENGINEER -->
  <text x="250" y="445" text-anchor="middle" font-family="'Outfit', 'Inter', sans-serif" font-size="16" font-weight="900" fill="#38BDF8" letter-spacing="5">SOFTWARE ENGINEER</text>

  <!-- Underline accent -->
  <line x1="190" y1="465" x2="310" y2="465" stroke="#14B8A6" stroke-width="3" stroke-opacity="0.8" stroke-linecap="round"/>
</svg>
