<svg width="500" height="500" viewBox="0 0 500 500" fill="none" xmlns="http://www.w3.org/2000/svg">
  <rect width="500" height="500" rx="40" fill="#0B1220"/>
  <defs>
    <linearGradient id="silver-metal-logo" x1="0%" y1="0%" x2="100%" y2="100%">
      <stop offset="0%" stop-color="#FFFFFF" />
      <stop offset="50%" stop-color="#CBD5E1" />
      <stop offset="100%" stop-color="#64748B" />
    </linearGradient>
  </defs>
  <!-- GA Interlocking Monogram -->
  <g transform="translate(15, 65) scale(0.95)">
    <!-- G (White) -->
    <path d="M 195 70 C 120 70 65 115 65 180 C 65 245 120 290 195 290 C 255 290 285 255 288 210 L 195 210 L 195 180 L 315 180 L 315 220 C 310 275 260 320 190 320 C 95 320 30 250 30 180 C 30 110 95 40 195 40 C 235 40 270 55 295 80 L 270 105 C 250 85 225 70 195 70 Z" fill="#FFFFFF" />
    <!-- A (Silver) -->
    <path d="M 335 50 L 375 50 L 460 280 L 418 280 L 396 220 L 250 220 L 250 190 L 386 190 L 355 100 L 318 190 L 285 280 L 245 280 L 335 50 Z" fill="url(#silver-metal-logo)" />
  </g>

  <!-- Text: Ghayas Awan -->
  <text x="250" y="415" text-anchor="middle" font-family="'Outfit', 'Inter', sans-serif" font-size="42" font-weight="800" fill="#FFFFFF">Ghayas Awan</text>

  <!-- Text: SOFTWARE ENGINEER -->
  <text x="250" y="455" text-anchor="middle" font-family="'Outfit', 'Inter', sans-serif" font-size="16" font-weight="900" fill="#CBD5E1" letter-spacing="5">SOFTWARE ENGINEER</text>
</svg>
