<svg xmlns="http://www.w3.org/2000/svg" viewBox="0 0 64 64" role="img" aria-labelledby="title">
  <title>Canva</title>
  <defs>
    <linearGradient id="canvaGradient" x1="9" y1="56" x2="55" y2="8" gradientUnits="userSpaceOnUse">
      <stop stop-color="#00C4CC"/>
      <stop offset=".45" stop-color="#7D2AE8"/>
      <stop offset="1" stop-color="#FF66C4"/>
    </linearGradient>
  </defs>
  <circle cx="32" cy="32" r="29" fill="url(#canvaGradient)"/>
  <path fill="#fff" d="M35.6 45.1c-8.7 0-15-5.7-15-13.3 0-7.8 6.7-14 15.1-14 5.3 0 9.5 2.2 11.8 5.5l-5.1 4c-1.4-2-3.5-3.3-6.6-3.3-4.6 0-8 3.3-8 7.6 0 4.5 3.4 7.4 8.2 7.4 3.1 0 5.4-1.1 7.1-3.4l4.8 4.1c-2.7 3.5-6.8 5.4-12.3 5.4z"/>
</svg>
