<svg xmlns="http://www.w3.org/2000/svg" viewBox="0 0 64 64" role="img" aria-labelledby="title">
  <title>Prompt Engineering</title>
  <defs>
    <linearGradient id="promptGradient" x1="12" y1="54" x2="52" y2="10" gradientUnits="userSpaceOnUse">
      <stop stop-color="#38BDF8"/>
      <stop offset=".5" stop-color="#8B5CF6"/>
      <stop offset="1" stop-color="#22C55E"/>
    </linearGradient>
  </defs>
  <rect x="8" y="10" width="48" height="44" rx="12" fill="#0B1220"/>
  <path fill="url(#promptGradient)" d="M18 21.5a3.5 3.5 0 0 1 3.5-3.5h21a3.5 3.5 0 0 1 3.5 3.5v21a3.5 3.5 0 0 1-3.5 3.5h-21a3.5 3.5 0 0 1-3.5-3.5v-21Zm6.2 6.4 5.2 4.1-5.2 4.1 2.5 3.1 8.9-7.2-8.9-7.2-2.5 3.1Zm13.7 8.5h8v-4.1h-8v4.1Z"/>
  <path fill="#E5E7EB" d="M31.8 13.5h.4a2 2 0 0 1 2 2V18h-4.4v-2.5a2 2 0 0 1 2-2Zm0 32.5h.4a2 2 0 0 1 2 2v2.5a2 2 0 0 1-4.4 0V48a2 2 0 0 1 2-2ZM13.5 31.8a2 2 0 0 1 2-2H18v4.4h-2.5a2 2 0 0 1-2-2v-.4ZM46 29.8h2.5a2 2 0 0 1 0 4.4H46v-4.4Z" opacity=".9"/>
</svg>
